<svg width="15" height="19" viewBox="0 0 15 19" fill="none" xmlns="http://www.w3.org/2000/svg">
<path fill-rule="evenodd" clip-rule="evenodd" d="M5.22994 0.0363107C4.95418 0.0919127 4.57473 0.303816 4.36498 0.519395C4.01461 0.879545 3.85802 1.33821 3.85632 2.00948L3.8556 2.29714L2.76316 2.29788C1.53396 2.29869 1.26361 2.32612 0.936712 2.48309C0.643578 2.62384 0.295225 2.97876 0.160918 3.27344C-0.140451 3.9348 -0.0112719 4.69975 0.487675 5.20848C0.660082 5.38427 1.06762 5.63771 1.17792 5.63771C1.20702 5.63771 1.2206 7.20236 1.22768 11.3631L1.23736 17.0884L1.33573 17.3854C1.47203 17.7967 1.66541 18.1146 1.94215 18.3825C2.2259 18.6571 2.52784 18.8283 2.90205 18.9267C3.17222 18.9977 3.31711 19 7.50308 19C11.6891 19 11.8339 18.9977 12.1041 18.9267C12.9826 18.6957 13.6125 17.9465 13.75 16.9691C13.7719 16.8136 13.7857 14.5997 13.7861 11.1804L13.7869 5.64346L13.9223 5.59803C14.4392 5.42462 14.8883 4.85846 14.9817 4.26258C15.0799 3.63556 14.775 2.93615 14.2534 2.59215C13.8598 2.33255 13.7977 2.3229 12.4109 2.30593L11.1613 2.29068L11.1386 1.85644C11.1134 1.37532 11.0394 1.09709 10.86 0.809802C10.6184 0.422889 10.1818 0.118674 9.74607 0.0337496C9.50732 -0.0127957 5.46223 -0.0104944 5.22994 0.0363107ZM9.79706 0.966734C10.1207 1.14924 10.2499 1.40535 10.2752 1.91445L10.2942 2.29714H7.50427H4.71435L4.72764 1.89812C4.73948 1.54365 4.75201 1.4797 4.84013 1.32521C4.89466 1.2296 4.99018 1.11409 5.05237 1.06858C5.29979 0.887526 5.28946 0.888231 7.55725 0.896991C9.46341 0.904377 9.69944 0.911726 9.79706 0.966734ZM13.6966 3.28643C13.8807 3.38824 13.9846 3.50342 14.0602 3.68934C14.1992 4.03141 14.0847 4.44145 13.7908 4.65376L13.6362 4.76545L7.58123 4.77636C3.35405 4.78401 1.48589 4.77532 1.39247 4.74756C1.03277 4.64066 0.802189 4.21351 0.89334 3.82292C0.961883 3.52925 1.19196 3.29775 1.49015 3.2224C1.54974 3.20733 4.28806 3.19761 7.57531 3.20076L13.5521 3.20651L13.6966 3.28643ZM12.9119 11.1497C12.9185 14.8722 12.9094 16.6885 12.8832 16.8657C12.8071 17.379 12.5494 17.7582 12.1335 17.9686L11.8924 18.0906L7.59784 18.1006C2.93875 18.1115 3.06171 18.1163 2.74568 17.9113C2.44998 17.7194 2.20492 17.3452 2.12662 16.966C2.09762 16.8254 2.08603 15.1879 2.08603 11.222V5.67457L7.49405 5.68399L12.9021 5.69338L12.9119 11.1497ZM4.65783 7.00883C4.59943 7.06885 4.54129 7.17114 4.52865 7.23617C4.51601 7.3012 4.50565 9.24861 4.50565 11.5638C4.50565 16.0517 4.50056 15.9174 4.67675 16.0786C4.78578 16.1783 4.9796 16.198 5.13009 16.1246C5.38812 15.9987 5.37238 16.298 5.37238 11.5226C5.37238 6.86225 5.38252 7.09939 5.17686 6.96087C5.1268 6.92717 5.01373 6.8997 4.925 6.8997C4.79499 6.8997 4.74356 6.92071 4.65783 7.00883ZM7.24465 6.9834C7.19193 7.02924 7.13097 7.10322 7.10923 7.1478C7.08131 7.20511 7.06972 8.48766 7.06972 11.5221C7.06972 16.2981 7.05397 15.9987 7.31201 16.1246C7.46249 16.198 7.65631 16.1783 7.76534 16.0786C7.94154 15.9174 7.93645 16.0517 7.93645 11.5638C7.93645 9.24861 7.92608 7.3012 7.91344 7.23617C7.9008 7.17114 7.84266 7.06885 7.78426 7.00883C7.64584 6.86656 7.39286 6.85461 7.24465 6.9834ZM9.75658 7.0259L9.63379 7.1521V11.5004C9.63379 15.2345 9.64123 15.8635 9.68637 15.9532C9.74383 16.0674 9.9366 16.1791 10.0763 16.1791C10.2113 16.1791 10.4047 16.0261 10.4534 15.8808C10.5101 15.7115 10.5195 7.43527 10.4631 7.22686C10.4092 7.02731 10.2452 6.8997 10.0427 6.8997C9.90508 6.8997 9.86001 6.9196 9.75658 7.0259Z" fill="#C70000"/>
</svg>
