<svg width="59" height="56" viewBox="0 0 59 56" fill="none" xmlns="http://www.w3.org/2000/svg">
<path fill-rule="evenodd" clip-rule="evenodd" d="M3.78014 28.1374C3.78014 14.577 15.4073 3.45201 29.9176 3.45201C44.4278 3.45201 56.055 14.577 56.055 28.1374C56.055 41.6977 44.4278 52.8227 29.9176 52.8227C15.4073 52.8227 3.78014 41.6977 3.78014 28.1374ZM29.9176 0.547852C13.9533 0.547852 0.875977 12.8271 0.875977 28.1374C0.875977 43.4476 13.9533 55.7269 29.9176 55.7269C45.8818 55.7269 58.9592 43.4476 58.9592 28.1374C58.9592 12.8271 45.8818 0.547852 29.9176 0.547852ZM21.5666 15.6802C21.5666 14.7626 22.3616 13.9797 23.3627 13.9797H25.6333V14.7246C25.6333 14.9178 25.7981 15.0702 25.9949 15.0702H32.6797C32.8818 15.0702 33.0414 14.9127 33.0414 14.7246V13.9797H34.7063C35.7121 13.9797 36.5024 14.762 36.5024 15.6802V33.3836H37.2284V15.6802C37.2284 14.3316 36.0829 13.2536 34.7063 13.2536H23.3627C21.992 13.2536 20.8406 14.331 20.8406 15.6802V39.9048C20.8406 41.2597 21.9926 42.3315 23.3627 42.3315H34.7063C35.1009 42.3315 35.4788 42.243 35.8147 42.0825L35.5017 41.4274C35.2632 41.5414 34.9923 41.6054 34.7063 41.6054H23.3627C22.361 41.6054 21.5666 40.827 21.5666 39.9048V15.6802ZM39.9271 42.5023L44.3836 40.3624C44.3836 40.3624 44.2294 39.8033 44.2294 39.5593C44.2294 39.3154 44.2294 36.9824 42.1553 34.3546C42.1553 34.3546 41.7671 33.7243 40.7407 33.9886C40.7407 33.9886 40.4004 34.0394 40.2302 33.9734C40.1845 33.9556 40.1347 33.9236 40.0765 33.8863L40.0765 33.8863C39.9178 33.7845 39.6972 33.643 39.3314 33.643C38.8315 33.643 38.3954 34.0394 38.3316 34.2326C38.3316 34.2326 37.736 33.7548 37.2521 33.8819C36.7681 34.014 36.4118 34.3342 36.4969 34.6545L36.2682 34.624L33.8272 30.8779C33.8272 30.8779 33.1412 29.9173 32.5296 30.1613C31.918 30.4052 33.2794 32.9619 33.2794 32.9619C33.2794 32.9619 36.1672 37.9735 36.2469 38.3496C36.2595 38.4088 36.2737 38.469 36.2878 38.5284L36.2879 38.5286C36.3633 38.8469 36.4338 39.1442 36.2097 39.1527C35.9438 39.1629 33.7527 37.6076 33.7527 37.6076C33.7527 37.6076 32.9497 37.2314 32.7104 37.6584C32.4711 38.0853 32.9763 38.6902 32.9763 38.6902C32.9763 38.6902 33.6623 39.3357 33.907 39.6508C33.9934 39.7646 34.0624 39.8519 34.1194 39.9239L34.1195 39.924C34.2204 40.0514 34.2834 40.131 34.3377 40.2252C34.4281 40.3726 35.5449 40.8809 35.8906 40.9774C35.9642 40.998 36.0642 41.0435 36.196 41.1035C36.6833 41.3253 37.6068 41.7455 39.2517 41.8415C39.2517 41.8314 39.6984 41.8212 39.9271 42.5023ZM31.4832 32.1016L31.0258 30.9021H23.9315C23.9315 30.9021 23.2348 30.8817 23.2348 31.4815C23.2348 32.0914 23.6443 32.1016 23.6443 32.1016H31.4832ZM23.6972 28.1274C23.6972 28.1274 23.2398 28.1122 23.2398 28.8085C23.2398 29.388 23.8354 29.327 23.8354 29.327L34.1898 29.3524C34.1898 29.3524 34.8173 29.327 34.8333 28.8085C34.8482 28.3246 34.4785 28.1817 34.36 28.1359C34.3515 28.1326 34.3444 28.1298 34.3387 28.1274C34.2536 28.0919 23.6972 28.1274 23.6972 28.1274ZM23.3312 26.0996C23.3046 25.388 23.7885 25.4185 23.7885 25.4185C23.7885 25.4185 34.345 25.3829 34.43 25.4185C34.4357 25.4209 34.4429 25.4237 34.4514 25.4269C34.5699 25.4728 34.9395 25.6157 34.9246 26.0996C34.9087 26.6181 34.2811 26.6435 34.2811 26.6435L23.9268 26.6181C23.9268 26.6181 23.3524 26.6638 23.3312 26.0996ZM29.1289 20.368C28.1308 20.368 27.333 21.1398 27.333 22.078C27.333 22.2553 27.3615 22.4265 27.4144 22.5878L28.4832 22.0795C28.4832 22.0795 29.116 22.6793 29.7489 22.0795L30.8338 22.598C30.8338 22.598 30.4296 23.7721 29.1479 23.767C28.2208 23.7633 27.7166 23.1532 27.5087 22.816C27.7971 23.389 28.4112 23.7881 29.1289 23.7881C30.127 23.7881 30.9248 23.0163 30.9248 22.078C30.9248 21.1398 30.127 20.368 29.1289 20.368ZM27.0426 22.078C27.0426 20.9671 27.983 20.0776 29.1289 20.0776C30.2749 20.0776 31.2153 20.9671 31.2153 22.078C31.2153 23.189 30.2749 24.0785 29.1289 24.0785C27.983 24.0785 27.0426 23.189 27.0426 22.078ZM29.7559 21.6221C29.7559 21.9393 29.4868 22.1965 29.1549 22.1965C28.8231 22.1965 28.554 21.9393 28.554 21.6221C28.554 21.3049 28.8231 21.0478 29.1549 21.0478C29.4868 21.0478 29.7559 21.3049 29.7559 21.6221ZM30.5312 14.5721C30.595 14.5721 30.6589 14.5467 30.7014 14.5061C30.7386 14.4705 30.7652 14.4247 30.7705 14.3739C30.7918 14.2316 30.6589 14.1147 30.51 14.1147H28.1487C28.0849 14.1147 28.0211 14.1401 27.9785 14.1808C27.9254 14.2316 27.8934 14.3129 27.9147 14.3942C27.936 14.501 28.0477 14.5721 28.1647 14.5721H30.5312Z" fill="#FDFDFD"/>
</svg>
