<svg width="59" height="56" viewBox="0 0 59 56" fill="none" xmlns="http://www.w3.org/2000/svg">
<path fill-rule="evenodd" clip-rule="evenodd" d="M29.314 3.58165C14.8038 3.58165 3.17662 14.7066 3.17662 28.267C3.17662 41.8274 14.8038 52.9524 29.314 52.9524C43.8243 52.9524 55.4515 41.8274 55.4515 28.267C55.4515 14.7066 43.8243 3.58165 29.314 3.58165ZM0.272461 28.267C0.272461 12.9568 13.3498 0.67749 29.314 0.67749C45.2783 0.67749 58.3556 12.9568 58.3556 28.267C58.3556 43.5772 45.2783 55.8565 29.314 55.8565C13.3498 55.8565 0.272461 43.5772 0.272461 28.267ZM33.9678 17.2216C32.5837 17.6378 30.8419 18.1598 29.1372 18.6701C27.4512 19.1748 25.803 19.6675 24.5764 20.034L23.1005 20.4749L22.6896 20.5977L22.5816 20.6299L22.5624 20.6356C22.553 20.6376 22.5417 20.64 22.5288 20.6432C22.4961 20.651 22.4523 20.6632 22.4018 20.6815C22.303 20.7173 22.1669 20.7805 22.0391 20.8902C21.9082 21.0026 21.7863 21.1639 21.7277 21.3848C21.6695 21.6038 21.6811 21.8522 21.7668 22.1282L21.7669 22.1286L23.7465 28.5433L23.9155 29.091L24.3384 28.7041C24.4969 28.5591 24.654 28.4142 24.8105 28.2698L24.813 28.2675L24.815 28.2656L24.8157 28.265L24.8166 28.2642C24.9752 28.1178 25.1332 27.9721 25.2924 27.8264L25.2942 27.8248C25.4478 27.6824 25.6111 27.5226 25.7692 27.3679L25.7692 27.3678L25.7694 27.3676C25.891 27.2486 26.0096 27.1326 26.1185 27.0297L26.1185 27.0297L26.1211 27.0272C26.1718 26.9783 26.2185 26.9318 26.264 26.8865L26.2641 26.8864C26.3422 26.8087 26.4167 26.7345 26.501 26.6584C26.6286 26.5434 26.7429 26.4586 26.8485 26.4092C27.3817 26.1655 28.1153 26.2577 28.6038 26.6044C28.9748 26.8679 29.3718 27.2638 29.556 27.6192C29.7578 28.0085 29.7022 28.4453 29.5604 28.9819L29.56 28.9836C29.5409 29.0573 29.5013 29.1704 29.4483 29.2653C29.4221 29.3123 29.398 29.3449 29.3792 29.3645C29.3697 29.3745 29.3646 29.3779 29.3644 29.378C29.3642 29.3781 29.3694 29.3746 29.3806 29.3712L29.5862 30.0674L33.6708 28.904V42.787C33.6708 43.589 34.3209 44.2391 35.1229 44.2391H46.7395C47.5415 44.2391 48.1916 43.589 48.1916 42.787V18.1017C48.1916 17.2997 47.5415 16.6496 46.7395 16.6496H38.2152C38.177 16.6021 38.131 16.5548 38.0755 16.5105C37.7714 16.2678 37.3038 16.2032 36.6352 16.4134L36.6348 16.4135C36.5042 16.4547 36.237 16.5365 35.8642 16.6496H35.1229C34.6518 16.6496 34.2331 16.8739 33.9678 17.2216ZM33.6712 18.0689C33.671 18.0798 33.6708 18.0907 33.6708 18.1017V20.056V21.3356C33.6708 21.3358 33.6708 21.336 33.6708 21.3362V28.1491L30.2757 29.1161C30.415 28.5767 30.5287 27.9182 30.2006 27.2851C29.9436 26.7893 29.4472 26.3128 29.0241 26.0124L29.0241 26.0124C28.3437 25.5294 27.3354 25.3875 26.5451 25.7496L26.5432 25.7505C26.3403 25.8449 26.1626 25.986 26.0147 26.1193C25.9188 26.2058 25.8193 26.3047 25.7323 26.3911C25.6909 26.4323 25.6523 26.4707 25.6183 26.5034C25.4827 26.6317 25.362 26.7501 25.2437 26.8662L25.2436 26.8662C25.1002 27.007 24.9603 27.1443 24.8015 27.2915C24.6415 27.4378 24.4831 27.584 24.3252 27.7296L24.3246 27.7302L24.3242 27.7306L24.2707 27.7799L22.4605 21.9137L22.4602 21.913C22.4055 21.7369 22.4136 21.6304 22.4294 21.5712C22.4446 21.5138 22.4741 21.4737 22.512 21.4411C22.5531 21.4058 22.6036 21.3806 22.6489 21.3642C22.6706 21.3564 22.6883 21.3515 22.6992 21.3489L22.7086 21.3468L22.7289 21.3436L22.7524 21.3366L22.6485 20.9888C22.7524 21.3366 22.7524 21.3366 22.7525 21.3366L22.753 21.3365L22.7547 21.3359L22.7617 21.3338L22.7894 21.3256L22.8974 21.2933L23.3083 21.1706L24.7843 20.7297C26.011 20.3631 27.6592 19.8704 29.3454 19.3656C30.8466 18.9163 32.3792 18.4571 33.6712 18.0689ZM27.1517 26.672C27.1517 26.672 27.8995 26.2471 28.6941 26.9882C29.4886 27.7293 29.4211 28.4061 29.042 28.7717C28.6629 29.1324 25.2823 32.4277 25.2823 32.4277C25.2823 32.4277 23.8906 34.1915 23.3764 35.6935C22.9234 37.0128 20.1793 38.5546 19.2179 39.0948C19.0885 39.1676 18.9913 39.2222 18.9365 39.2556C18.4743 39.5372 16.0543 41.3356 16.0543 41.3356L11.8896 37.2497C11.8896 37.2497 13.4994 35.6095 13.9616 33.7469C14.4238 31.8892 15.452 27.5514 15.452 27.5514C15.452 27.5514 15.6181 26.6769 16.7969 26.5485C17.9758 26.42 22.7325 25.3627 22.7325 25.3627L23.5426 27.917L22.2652 28.4555C22.2652 28.4555 22.0003 27.5415 21.7199 27.665C21.6974 27.6749 21.6755 27.6843 21.6542 27.6935L21.6542 27.6935C21.4093 27.7985 21.249 27.8672 21.3875 28.2036C21.5381 28.5692 21.803 30.6491 21.3564 31.1531C21.3564 31.1531 19.8972 31.1827 19.9127 31.6126C19.9266 31.9905 20.0473 31.9814 21.1487 31.8983C21.2854 31.888 21.4371 31.8765 21.6056 31.8645L27.1517 26.672ZM29.2426 29.7194L29.3133 32.4522C29.3133 32.4522 29.0416 32.7612 28.6581 32.5493C28.2784 32.3374 27.8503 31.5339 27.8615 31.3926C27.8764 31.2558 29.2426 29.7194 29.2426 29.7194ZM27.8219 33.615C27.5855 33.5707 27.1203 32.623 27.1203 32.623L25.3664 34.0916C25.3664 34.0916 24.5351 35.3164 25.2443 36.3749C25.9535 37.4334 27.1203 36.7795 27.1203 36.7795C27.1203 36.2617 27.3779 35.4359 27.5895 34.7576C27.7833 34.1363 27.9385 33.6388 27.8219 33.615ZM10.6326 38.4308L16.2457 42.9241V43.1213L14.8646 44.2392H14.5096L8.98528 39.8862V39.61L10.3497 38.5185L10.6326 38.4308Z" fill="#D9D9D9"/>
</svg>
