<svg width="60" height="56" viewBox="0 0 60 56" fill="none" xmlns="http://www.w3.org/2000/svg">
<path fill-rule="evenodd" clip-rule="evenodd" d="M3.86119 28.1374C3.86119 14.577 15.4883 3.45201 29.9986 3.45201C44.5089 3.45201 56.136 14.577 56.136 28.1374C56.136 41.6977 44.5089 52.8227 29.9986 52.8227C15.4883 52.8227 3.86119 41.6977 3.86119 28.1374ZM29.9986 0.547852C14.0344 0.547852 0.957031 12.8271 0.957031 28.1374C0.957031 43.4476 14.0344 55.7269 29.9986 55.7269C45.9629 55.7269 59.0402 43.4476 59.0402 28.1374C59.0402 12.8271 45.9629 0.547852 29.9986 0.547852ZM44.8793 15.4219C44.8812 15.4303 44.8829 15.4382 44.8843 15.4455L44.9046 15.5056L44.988 15.7528C45.06 15.9662 45.163 16.272 45.2874 16.6417C45.5363 17.381 45.8705 18.3759 46.2122 19.3979C46.8921 21.4316 47.6094 23.5965 47.7322 24.045L47.7319 24.0439L47.3823 24.1417L47.7325 24.046L47.7322 24.045C47.8096 24.3221 47.8031 24.5739 47.7139 24.7921C47.6254 25.0084 47.4717 25.1522 47.3251 25.2447C47.1807 25.3358 47.0323 25.3844 46.9266 25.4105C46.8724 25.4239 46.8259 25.4323 46.7917 25.4374L46.7695 25.4405L36.0774 28.4859L35.8718 27.7896C35.8501 27.7962 35.8508 27.8035 35.8704 27.783C35.8892 27.7633 35.9133 27.7307 35.9395 27.6838C35.9925 27.5888 36.0321 27.4757 36.0512 27.402L36.0516 27.4003C36.1934 26.8637 36.249 26.427 36.0472 26.0377C35.863 25.6823 35.4661 25.2864 35.095 25.0229L35.6209 24.5084C36.0183 24.8097 36.4559 25.2485 36.6918 25.7035C37.0199 26.3366 36.9062 26.9952 36.7669 27.5346L46.5991 24.7342L46.6336 24.7243L46.6665 24.7217L46.6672 24.7216L46.6683 24.7215C46.6709 24.7212 46.6763 24.7206 46.684 24.7194L46.6931 24.718L46.7104 24.7149C46.7226 24.7126 46.7368 24.7095 46.7524 24.7057C46.8128 24.6908 46.8809 24.6665 46.9377 24.6307C46.9924 24.5961 47.0249 24.5587 47.0419 24.5172C47.058 24.4778 47.0764 24.3955 47.0328 24.2395L47.0322 24.2375C46.9171 23.8167 46.2094 21.6797 45.5236 19.6281C45.1821 18.6067 44.848 17.6123 44.5993 16.8733C44.4796 16.5175 44.3797 16.221 44.3082 16.0091L44.3 15.9848L44.2167 15.7378L44.1948 15.6729L44.1892 15.6563L44.1878 15.6521L44.1874 15.651L44.1873 15.6508L44.5312 15.5345L44.1873 15.6507L44.1744 15.6124L44.1713 15.5831C44.1703 15.5793 44.1684 15.5726 44.1648 15.5641C44.1563 15.5435 44.1413 15.5183 44.1139 15.4964C44.0747 15.4652 43.8944 15.3516 43.3444 15.5244C42.7337 15.7171 39.2061 16.7755 35.8366 17.7841C34.1505 18.2888 32.5022 18.7816 31.2755 19.1481L29.7995 19.5891L29.3886 19.7118L29.2806 19.744L29.2529 19.7523L29.2459 19.7544L29.2442 19.7549L29.2437 19.755C29.2436 19.7551 29.2436 19.7551 29.1397 19.4072L29.2436 19.7551L29.2201 19.7621L29.1998 19.7653L29.1904 19.7674C29.1795 19.77 29.1618 19.7748 29.1401 19.7827C29.0948 19.7991 29.0443 19.8243 29.0032 19.8596C28.9653 19.8921 28.9358 19.9323 28.9206 19.9897C28.9049 20.0489 28.8967 20.1554 28.9514 20.3314L28.9517 20.3322L30.7619 26.1984L30.8154 26.1491L30.8155 26.1489L30.8162 26.1483C30.9741 26.0027 31.1326 25.8564 31.2927 25.71C31.4515 25.5628 31.5914 25.4254 31.7349 25.2847L31.735 25.2845C31.8533 25.1684 31.974 25.05 32.1096 24.9218C32.1432 24.8894 32.1813 24.8515 32.2223 24.8108L32.2224 24.8107L32.2224 24.8107L32.2234 24.8097L32.2235 24.8096L32.2235 24.8096L32.2237 24.8094C32.3106 24.7231 32.4101 24.6242 32.506 24.5378C32.6538 24.4044 32.8315 24.2633 33.0344 24.169L33.0363 24.1681C33.8266 23.806 34.8349 23.9479 35.5153 24.4308L35.5153 24.4309C35.5501 24.4556 35.5853 24.4814 35.6209 24.5084L35.095 25.0229C34.6065 24.6762 33.8729 24.584 33.3397 24.8277C33.2341 24.877 33.1198 24.9619 32.9922 25.0769C32.9079 25.153 32.8334 25.2272 32.7553 25.3049L32.7551 25.3051L32.7548 25.3054C32.7094 25.3506 32.6628 25.397 32.6123 25.4456L32.6097 25.4482L32.6097 25.4482C32.5008 25.5511 32.3821 25.6672 32.2605 25.7863L32.2604 25.7863C32.1023 25.9411 31.939 26.1009 31.7854 26.2432L31.7836 26.2449C31.6244 26.3905 31.4664 26.5363 31.3078 26.6827L31.3077 26.6827L31.307 26.6834C31.1488 26.8294 30.9899 26.9759 30.8296 27.1226L30.4067 27.5094L30.2377 26.9618L28.2582 20.5471L28.258 20.5467C28.1723 20.2707 28.1607 20.0223 28.2189 19.8033C28.2776 19.5824 28.3994 19.4211 28.5304 19.3087C28.6581 19.199 28.7942 19.1357 28.8931 19.1C28.9435 19.0817 28.9873 19.0695 29.02 19.0616C29.0329 19.0585 29.0442 19.056 29.0536 19.0541L29.0729 19.0483L29.1808 19.0161L29.5917 18.8934L31.0676 18.4525C32.2943 18.0859 33.9424 17.5932 35.6284 17.0885C39.0031 16.0784 42.5228 15.0224 43.126 14.832L43.1265 14.8318C43.795 14.6217 44.2626 14.6862 44.5667 14.929C44.711 15.0441 44.7914 15.1798 44.8354 15.2859C44.8575 15.3389 44.871 15.3859 44.8793 15.4219ZM40.7877 19.4534L39.7304 20.4879C39.7739 20.5044 39.8128 20.5312 39.8428 20.5695L39.9391 20.6543C40.3462 21.0116 40.6483 21.5162 40.6789 22.0655C40.6964 22.396 40.6658 22.7756 40.5432 23.0838C40.4732 23.2535 40.3638 23.4142 40.1624 23.3606C40.0092 23.316 39.8735 23.1686 39.8472 23.0078C39.8233 22.8827 39.875 22.7743 39.9269 22.6654C39.951 22.615 39.975 22.5644 39.9917 22.5121C40.0442 22.3514 40.0573 22.1817 40.0354 22.0164C39.9961 21.6859 39.821 21.3644 39.5408 21.1768C39.4405 21.1093 39.3319 21.0291 39.2738 20.9346L35.6209 24.5084L35.6209 24.5084L39.2738 20.9346C39.2127 20.8352 39.2074 20.7201 39.3263 20.5873C39.4189 20.4828 39.5962 20.4368 39.7303 20.4879L40.7877 19.4534ZM40.7877 19.4534C41.1633 19.737 41.513 20.0655 41.7659 20.4635C42.1329 21.0371 42.243 21.7022 42.1451 22.3673C42.1206 22.5565 42.0778 22.7456 42.0228 22.9287C41.9892 23.0447 41.9403 23.1586 41.8913 23.2726L41.8913 23.2727C41.8244 23.4284 41.7575 23.5843 41.7292 23.7464C41.6864 23.966 41.772 24.1491 42.0044 24.204C42.4631 24.3077 42.7628 23.9538 42.9157 23.5633C43.3621 22.3734 43.1909 20.9882 42.4876 19.9326C42.2185 19.5237 41.8821 19.1576 41.4968 18.8464C41.4809 18.8338 41.4646 18.8208 41.448 18.8074L41.4148 18.7806C41.2538 18.6504 41.0665 18.499 40.8791 18.4315C40.6712 18.3583 40.4694 18.5291 40.3532 18.6817C40.1575 18.938 40.292 19.1027 40.4938 19.2431C40.5927 19.3105 40.691 19.3805 40.7877 19.4534ZM33.643 25.0904C33.643 25.0904 34.3907 24.6655 35.1853 25.4066C35.9798 26.1477 35.9123 26.8246 35.5332 27.1902C35.1541 27.5508 31.7735 30.8462 31.7735 30.8462C31.7735 30.8462 30.3818 32.61 29.8677 34.1119C29.4146 35.4312 26.6705 36.9731 25.7091 37.5133L25.709 37.5134L25.7073 37.5143L25.7065 37.5148L25.706 37.5151C25.5781 37.5869 25.4821 37.6409 25.4277 37.6741C24.9655 37.9557 22.5456 39.7541 22.5456 39.7541L18.3808 35.6682C18.3808 35.6682 19.9906 34.0279 20.4528 32.1653C20.915 30.3077 21.9432 25.9699 21.9432 25.9699C21.9432 25.9699 22.1094 25.0954 23.2882 24.9669C24.467 24.8385 29.2237 23.7812 29.2237 23.7812L30.0338 26.3355L28.7564 26.874C28.7564 26.874 28.4915 25.96 28.2111 26.0835C28.1886 26.0934 28.1667 26.1028 28.1454 26.1119C27.9005 26.2169 27.7402 26.2857 27.8787 26.622C28.0293 26.9876 28.2942 29.0676 27.8476 29.5715C27.8476 29.5715 26.3884 29.6012 26.4039 30.031C26.4178 30.409 26.5385 30.3999 27.6399 30.3167L27.6405 30.3167C27.777 30.3064 27.9286 30.295 28.0969 30.283L33.643 25.0904ZM35.7348 28.1367L35.8055 30.8694C35.8055 30.8694 35.5338 31.1785 35.1503 30.9666C34.7706 30.7546 34.3425 29.9511 34.3537 29.8099C34.3686 29.673 35.7348 28.1367 35.7348 28.1367ZM34.314 32.0334C34.0776 31.9891 33.6125 31.0414 33.6125 31.0414L31.8585 32.5101C31.8585 32.5101 31.0273 33.7348 31.7365 34.7933C32.4457 35.8519 33.6125 35.1979 33.6125 35.1979C33.6125 34.6801 33.8701 33.8543 34.0817 33.176L34.0817 33.176C34.2755 32.5548 34.4307 32.0573 34.314 32.0334ZM17.1238 36.85L22.7369 41.3433V41.5405L21.3558 42.6583H21.0008L15.4765 38.3054V38.0292L16.8409 36.9377L17.1238 36.85ZM41.7652 18.5668C41.6704 18.4878 41.6105 18.3995 41.6155 18.2973C41.6254 18.1811 41.7103 18.0742 41.8202 18.0231C41.935 17.9673 42.1347 17.9487 42.2495 18.0184C42.8437 18.3763 43.4228 18.7898 43.8472 19.3242C44.3165 19.9144 44.5012 20.6579 44.5162 21.3782C44.5362 22.0799 44.4713 22.907 43.992 23.4786L43.9837 23.4887C43.9142 23.5734 43.7629 23.7582 43.6575 23.776C43.3679 23.8178 43.0733 23.6227 43.1931 23.3299C43.225 23.254 43.2771 23.1875 43.3296 23.1204C43.3511 23.093 43.3726 23.0654 43.3929 23.0371C43.7523 22.5353 43.8322 21.7918 43.7573 21.2016C43.6774 20.5836 43.3629 20.0027 42.9435 19.5241C42.7288 19.2778 42.4892 19.0547 42.2296 18.8595C42.1871 18.8304 42.1318 18.7993 42.0718 18.7656C41.9693 18.7081 41.8534 18.643 41.7652 18.5668Z" fill="url(#paint0_linear_463_1420)"/>
<defs>
<linearGradient id="paint0_linear_463_1420" x1="-1.30963" y1="28.1371" x2="61.3063" y2="28.1371" gradientUnits="userSpaceOnUse">
<stop stop-color="#E7E3E0"/>
<stop offset="0.0616" stop-color="#D9D5D4"/>
<stop offset="0.1794" stop-color="#B4B0B3"/>
<stop offset="0.264" stop-color="#989398"/>
<stop offset="0.5225" stop-color="#F8F8F8"/>
<stop offset="0.5875" stop-color="#E9E8E9"/>
<stop offset="0.7124" stop-color="#C3C0C3"/>
<stop offset="0.8764" stop-color="#8C878A"/>
<stop offset="1" stop-color="#B2B2B2"/>
</linearGradient>
</defs>
</svg>
