<svg width="110" height="151" viewBox="0 0 110 151" fill="none" xmlns="http://www.w3.org/2000/svg">
<path fill-rule="evenodd" clip-rule="evenodd" d="M0.713105 0.713105H109.105V150.287H0.713105V0.713105ZM0 0H0.713105H109.105H109.818V0.713105V150.287V151H109.105H0.713105H0V150.287V0.713105V0ZM100.667 9.15146H9.15172V32.0302H100.667V9.15146ZM43.4699 116.682V43.4697H66.3487V116.682H43.4699ZM81.061 125.833V144.136H85.4843V129.414H89.8567C93.3647 130.409 91.9412 134.338 89.8567 134.338H86.857V137.969H88.3314L92.2462 144.136H97.0762L92.6021 137.422C96.6186 136.974 99.7708 127.425 90.7718 125.833H81.061ZM16.7848 144.136V129.169H11.4394V126.121H25.7554V129.169H20.4222V144.136H16.7848ZM30.1281 126.121V144.136H43.8297V141.101H33.7654V136.198H42.8097V133.163H33.7654V129.169H43.4856V126.121H30.1281ZM48.8782 144.136V126.121H54.322L57.5907 138.41L60.8226 126.121H66.2786V144.136H62.8993V129.955L59.3234 144.136H55.8212L52.2575 129.955V144.136H48.8782ZM71.7942 126.121V144.136H75.4315V126.121H71.7942Z" fill="white"/>
</svg>
